IKResults
version=1
nRows=12
nColumns=24
inDegrees=yes

Units are S.I. units (second, meters, Newtons, ...)
If the header above contains a line with 'inDegrees', this indicates whether rotational values are in degrees (yes) or radians (no).

endheader
time	pelvis_tilt	pelvis_list	pelvis_rotation	pelvis_tx	pelvis_ty	pelvis_tz	hip_flexion_r	hip_adduction_r	hip_rotation_r	knee_angle_r	ankle_angle_r	subtalar_angle_r	mtp_angle_r	hip_flexion_l	hip_adduction_l	hip_rotation_l	knee_angle_l	ankle_angle_l	subtalar_angle_l	mtp_angle_l	lumbar_extension	lumbar_bending	lumbar_rotation
      4.24500000	      7.62440875	      5.24258503	   -179.85188315	      0.30959239	      0.34153566	     -1.20632431	    100.61361600	    -35.68972948	      2.43569887	   -139.51286734	     44.69521849	     12.02824946	      0.00000000	    112.47815878	    -36.19048054	     19.32567583	   -139.54624068	     44.77725824	     25.11016420	      0.00000000	    -19.33088126	      5.30764196	      6.60784431
      4.25000000	      7.60426121	      5.24255375	   -179.84842052	      0.30958552	      0.34183619	     -1.20633500	    100.53077416	    -35.70725343	      2.38586471	   -139.46779573	     44.72519373	     12.03297254	      0.00000000	    112.39914706	    -36.20127459	     19.28200054	   -139.50748902	     44.79308675	     25.08514884	      0.00000000	    -19.35700553	      5.29666453	      6.64976299
      4.25500000	      7.62676256	      5.19285828	   -179.88597336	      0.30967545	      0.34201606	     -1.20650081	    100.54597063	    -35.65056029	      2.39064238	   -139.42759586	     44.75509245	     12.04014354	      0.00000000	    112.35203646	    -36.26250845	     19.20631402	   -139.45513097	     44.79745805	     25.08035009	      0.00000000	    -19.35481350	      5.20083912	      6.65460051
      4.26000000	      7.56342149	      5.20955651	   -179.82721920	      0.30957465	      0.34249880	     -1.20644877	    100.36565788	    -35.72995987	      2.31765753	   -139.37399022	     44.77815097	     12.03209681	      0.00000000	    112.19662607	    -36.22853572	     19.14385219	   -139.39525846	     44.82689224	     25.08941558	      0.00000000	    -19.42466292	      5.23271828	      6.61933852
      4.26500000	      7.55081106	      5.20327732	   -179.82834956	      0.30955120	      0.34297811	     -1.20642518	    100.26427855	    -35.73788840	      2.26201297	   -139.30619516	     44.80542900	     12.00719532	      0.00000000	    112.08620488	    -36.25012192	     19.07064159	   -139.33091694	     44.84665206	     25.06865322	      0.00000000	    -19.44285423	      5.22653280	      6.64094822
      4.27000000	      7.49805516	      5.20456285	   -179.93335241	      0.30963712	      0.34369641	     -1.20648310	    100.09241160	    -35.61069685	      2.15137549	   -139.19908351	     44.77676789	     11.98585487	      0.00000000	    111.93966874	    -36.37429613	     19.04008984	   -139.25733120	     44.85577765	     25.01387654	      0.00000000	    -19.54936895	      5.19627456	      6.74257619
      4.27500000	      7.48470605	      5.23442037	   -179.88949958	      0.30950701	      0.34428653	     -1.20633804	     99.92931287	    -35.67235168	      2.06300118	   -139.11946316	     44.81552894	     11.95596860	      0.00000000	    111.81635661	    -36.34008379	     18.97255052	   -139.19140469	     44.87728424	     24.98014801	      0.00000000	    -19.55469511	      5.25244817	      6.71607665
      4.28000000	      7.55173315	      5.13721821	   -179.83353119	      0.30953094	      0.34466310	     -1.20624932	     99.99208260	    -35.71264771	      2.16547179	   -139.04634206	     44.85512817	     11.96686077	      0.00000000	    111.68070072	    -36.30993145	     18.71640422	   -139.10861735	     44.88901142	     24.90030862	      0.00000000	    -19.48238175	      5.15421661	      6.59453219
      4.28500000	      7.55988734	      5.05407436	   -179.83483858	      0.30958084	      0.34531891	     -1.20638031	     99.93467737	    -35.66270970	      2.19564747	   -138.94917634	     44.86715898	     11.94558535	      0.00000000	    111.48727836	    -36.36035323	     18.51394097	   -138.98919509	     44.89497683	     24.86797100	      0.00000000	    -19.47795666	      5.03815133	      6.56186330
      4.29000000	      7.56862627	      5.05237744	   -179.79363029	      0.30946447	      0.34614442	     -1.20628911	     99.77552255	    -35.69372878	      2.12517567	   -138.83008189	     44.90312719	     11.94727669	      0.00000000	    111.31350270	    -36.34010542	     18.37943198	   -138.87863542	     44.90553618	     24.82591477	      0.00000000	    -19.45160981	      5.05612262	      6.52614161
      4.29500000	      7.57525700	      5.01944715	   -179.80388341	      0.30941117	      0.34708625	     -1.20618512	     99.64810470	    -35.66626679	      2.08027040	   -138.70134630	     44.88843179	     11.91393044	      0.00000000	    111.09967114	    -36.37344921	     18.19899214	   -138.76593898	     44.91114636	     24.71636535	      0.00000000	    -19.45196061	      5.02913146	      6.51888346
      4.30000000	      7.58353819	      4.99527645	   -179.80657207	      0.30933293	      0.34815295	     -1.20606534	     99.48890936	    -35.64221821	      2.01370660	   -138.55043575	     44.87354590	     11.86109722	      0.00000000	    110.87508498	    -36.40539325	     18.01161387	   -138.63982078	     44.93110756	     24.62005450	      0.00000000	    -19.44283196	      5.02070539	      6.48398580
